<svg fill="#000000" height="24" viewBox="0 0 100 100" width="24" xmlns="http://www.w3.org/2000/svg">

<path d="M83.636,16.935H16.37c-1.369,0-2.482,1.117-2.482,2.487v1.605c0,1.37,1.113,2.491,2.482,2.491h26.997v4.323h13.168v-4.323   h27.101c1.37,0,2.477-1.121,2.477-2.491v-1.605C86.112,18.052,85.006,16.935,83.636,16.935z"/>

<path d="M59.037,47.958l-6.782,4.96c-0.602-0.309-1.281-0.483-2.004-0.483c-2.434,0-4.404,1.973-4.404,4.405   c0,2.434,1.971,4.405,4.404,4.405c2.432,0,4.405-1.972,4.405-4.405c0-0.339-0.04-0.668-0.111-0.985l6.043-6.096   c0.406-0.407,0.468-1.062,0.115-1.542C60.315,47.685,59.57,47.569,59.037,47.958z"/>

<path d="M70.775,30.594H29.231c-5.451,0-9.841,4.401-9.841,9.853v32.788c0,5.45,4.39,9.831,9.841,9.831h41.544   c5.451,0,9.834-4.381,9.834-9.831V40.446C80.609,34.995,76.227,30.594,70.775,30.594z M50.005,74.374   c-9.686,0-17.536-7.85-17.536-17.534c0-9.684,7.851-17.534,17.536-17.534c9.683,0,17.534,7.851,17.534,17.534   C67.539,66.524,59.688,74.374,50.005,74.374z"/>

</svg>
